<!-- Generator: Adobe Illustrator 22.0.1, SVG Export Plug-In  -->
<svg version="1.1"
	 xmlns="http://www.w3.org/2000/svg" xmlns:xlink="http://www.w3.org/1999/xlink" xmlns:a="http://ns.adobe.com/AdobeSVGViewerExtensions/3.0/"
	 x="0px" y="0px" width="132px" height="82.1px" viewBox="0 0 132 82.1" style="enable-background:new 0 0 132 82.1;"
	 xml:space="preserve">
<style type="text/css">
	.st0{fill:#28ABE3;}
	.st1{fill:#FEFEFE;}
	.st2{fill:#FDFDFD;}
	.st3{fill:#FCFCFC;}
	.st4{fill:#FFFFFF;}
</style>
<defs>
</defs>
<g>
	<path class="st0" d="M64.2,0c16.5,0,33,0,49.5,0c7.3,0,11.5,2.8,12.3,8.3c0.8,5.2-2,9.1-8.9,11.1c-3.4,1-1.5,2.7-0.9,4
		c4.6,10.5,9.3,21,13.9,31.5c4.2,9.6,1.8,15.5-8,19.1c-1.7,0.6-2.2,1.8-3.1,3c-5.3,6.8-14.5,7-19.5,0c-1.6-2.2-3.2-2.8-5.7-2.8
		c-13.2,0.1-26.3,0.1-39.5,0c-2.4,0-3.8,0.6-5.3,2.6c-5.3,7.2-14.4,7.2-19.7-0.1c-1.5-2.1-3.1-2.6-5.4-2.5c-4,0.1-8,0.1-12,0
		C4.9,73.8,0.1,69.2,0.1,62.4C0,45.6,0,28.7,0.1,11.9C0.1,4.8,5.2,0.1,12.7,0C29.9,0,47,0,64.2,0z"/>
	<path class="st1" d="M122,47.1c1.7,3.8,3.4,7.6,5.1,11.3c1.3,2.8,1.1,5.5-0.5,8.1c-1.1,1.7-2.6,3.4-4.7,3.3
		c-1.6-0.1-1.2-2.4-1.8-3.7c-2.1-4.7-6.2-7.4-11.5-7.2c-5.2,0.2-9.2,2.5-10.6,7.5c-1,3.6-2.9,4.1-6,3.9c-5.3-0.3-10.6-0.2-16-0.3
		c-1.9-2.1-1.5-4.7-1.6-7.1c-0.1-9.3,0.1-18.6-0.1-28c-0.1-6.5-1.1-7.4-7.7-7.4c-8.6,0-9.2,0.5-9.2,9.4c0,8.8,0,17.6,0,26.5
		c0,2.3,0.2,4.7-1.6,6.6c-2.9,0.6-4.8,0.4-5.8-3.2c-1.5-5.4-5.9-8-11.3-8c-5.2,0.1-9.4,2.7-10.9,7.8c-0.9,3-2.3,3.8-5.2,3.6
		c-3.5-0.2-7,0-10.5-0.1c-4.9-0.2-8-2.9-8.1-7.7C4,49.1,4.1,35.8,4,22.5c0-3.2,2-2.8,3.9-2.8c13.2,0,26.3,0,39.5,0
		c19,0,38,0.1,57-0.1c4.3-0.1,7.1,0.9,7.8,5.4c-0.5,2.8-2.9,2.3-4.7,2.4c-3.3,0.2-6.7,0.1-10,0.1c-1.3,0-2.9-0.2-3.8,0.7
		c-3.5,3.6-2.1,8.2-1.8,12.3c0.2,3.4,2.9,4.7,6,4.8c5.8,0.3,11.7,0.1,17.5,0.1C117.7,45.6,120,45.5,122,47.1z"/>
	<path class="st2" d="M61.3,15.7c-17.3,0-34.6,0-51.9,0c-5.4,0-7-2.8-4.3-7.7c2-3.5,5.3-4.1,9-4.1C37.7,4,61.3,4,85,4
		c9.8,0,19.6,0,29.4,0c4.9,0,7.7,2.2,7.6,5.9c-0.1,3.7-2.9,5.8-7.8,5.8C96.5,15.7,78.9,15.7,61.3,15.7z"/>
	<path class="st1" d="M72,69.9c-4,0-7.9,0-11.9,0c-1.5-1.6-1.6-3.6-1.6-5.6c-0.1-9.6,0-19.2,0-28.9c0-8.4,5.2-8.6,11.1-7.6
		c2.6,0.5,3.8,2.6,3.9,5.1c0.4,11.1,0.3,22.2,0.1,33.3C73.5,67.7,73,69,72,69.9z"/>
	<path class="st0" d="M72,69.9C72,58,71.8,46,72.1,34.1c0.2-5.3-2.8-4.9-6.3-5c-3.7-0.1-5.9,0.4-5.8,5C60.2,46.1,60.1,58,60.1,70
		c-1.4,0-2.7,0-4.1,0c0-12,0-24,0-35.9c0-7.1,1.1-8.2,8-8.2c12-0.1,12-0.1,12,12.2c0,10.6,0,21.3,0,31.9C74.7,70,73.3,70,72,69.9z"
		/>
	<path class="st2" d="M113.9,29.2c2,4.6,4,9.2,6,13.8c-1,1.1-2.3,1.4-3.6,1.5c-6,0.2-12,0.4-18-0.1c-4.7-0.4-6.1-2.8-5.9-9.1
		c0.2-5.6,1.6-7.7,6.3-7.6C103.9,27.7,109.2,26.1,113.9,29.2z"/>
	<path class="st0" d="M113.9,29.2c-5.1,0-10.3,0.1-15.4-0.1c-3.1-0.1-4.4,1-4.5,4.3c-0.3,9.6-0.4,9.6,9.1,9.6c5.6,0,11.3,0,16.9,0
		c1.3,1,1.4,2.7,2.1,4.1c-7.9,0-15.9-0.1-23.8-0.1c-6.1-0.1-8-2-8.1-8c-0.2-13.1-0.2-13,13-13.2c3.1,0,6.3,1,9.2-0.8
		C112.8,26.4,113.3,27.8,113.9,29.2z"/>
	<path class="st3" d="M46.9,70.1c0,4.5-3.4,7.9-7.9,7.9c-4.5,0-7.8-3.4-7.9-7.9c0-3.9,3.6-7.3,7.9-7.3C43.3,62.8,47,66.2,46.9,70.1z
		"/>
	<path class="st3" d="M116.9,69.9c0.1,4.5-3.2,8-7.7,8.2c-4.5,0.1-7.9-3.1-8.1-7.7c-0.2-3.9,3.4-7.5,7.7-7.6
		C113.1,62.7,116.8,65.9,116.9,69.9z"/>
	<path class="st0" d="M30.3,25.9c5,0,10,0,15,0c1.5,0,3.3-0.4,4.3,0.7c4.5,4.6,2.4,10.4,2.1,15.7c-0.2,3.7-3.7,4.7-7.1,4.7
		c-9.7,0-19.3,0-29,0c-5.5,0-7.4-2.1-7.5-7.6C7.8,25.9,7.8,25.9,21.3,25.9C24.3,25.9,27.3,25.9,30.3,25.9z"/>
	<path class="st0" d="M85.1,62.2c-1.7-0.5-4.5,0.9-4.6-1.5c-0.1-3,3-1.6,4.6-1.7c1.6-0.1,4.5-1,4.5,1.3
		C89.7,63.4,86.6,61.5,85.1,62.2z"/>
	<path class="st4" d="M30.5,29.1c4.3,0,8.6,0.1,13,0c3.5-0.2,4.6,1.4,4.6,4.7C48.2,43,48.3,43,39,43c-7.3,0-14.6-0.2-21.9,0.1
		c-4,0.1-5.5-1.4-5-5.2c0.1-0.5,0-1,0-1.5c0-7.2,0-7.2,7-7.2C22.9,29.1,26.7,29.1,30.5,29.1z"/>
</g>
</svg>
